<svg width="20" height="20" viewBox="0 0 20 20" fill="none" xmlns="http://www.w3.org/2000/svg">
<path d="M10 0C6.00607 0 2.75677 3.2493 2.75677 7.2432C2.75677 12.1998 9.23877 19.4763 9.51474 19.7836C9.77396 20.0723 10.2265 20.0718 10.4853 19.7836C10.7613 19.4763 17.2433 12.1998 17.2433 7.2432C17.2432 3.2493 13.9939 0 10 0ZM10 18.3488C7.81849 15.7575 4.06115 10.645 4.06115 7.24328C4.06115 3.96852 6.72529 1.30438 10 1.30438C13.2747 1.30438 15.9389 3.96852 15.9389 7.24324C15.9388 10.6451 12.1821 15.7566 10 18.3488Z" fill="#009B77"/>
<path d="M9.99999 3.59888C7.99054 3.59888 6.35577 5.23368 6.35577 7.24313C6.35577 9.25259 7.99058 10.8874 9.99999 10.8874C12.0094 10.8874 13.6442 9.25259 13.6442 7.24313C13.6442 5.23368 12.0094 3.59888 9.99999 3.59888ZM9.99999 9.58302C8.70976 9.58302 7.66015 8.53337 7.66015 7.24313C7.66015 5.9529 8.7098 4.90325 9.99999 4.90325C11.2902 4.90325 12.3398 5.9529 12.3398 7.24313C12.3398 8.53337 11.2902 9.58302 9.99999 9.58302Z" fill="#009B77"/>
</svg>
