<svg width="67" height="67" viewBox="0 0 67 67" fill="none" xmlns="http://www.w3.org/2000/svg">
<path d="M37.5731 6.33127C37.5731 3.78909 35.6085 1.72131 33.1985 1.72131C30.7869 1.72131 28.8239 3.79072 28.8239 6.33127C28.8239 8.87182 30.7869 10.9412 33.1985 10.9412C35.6085 10.9412 37.5731 8.87509 37.5731 6.33127Z" fill="url(#paint0_linear_43_256)"/>
<path d="M35.4906 22.5283C35.7761 22.9962 36.268 23.2792 36.7957 23.2792H46.923C47.7811 23.2792 48.4748 22.548 48.4748 21.6433C48.4748 20.7387 47.7811 20.0074 46.923 20.0074H37.643L34.5036 14.8592C34.201 14.3619 33.6827 14.0904 33.1054 14.1116C32.5452 14.146 32.047 14.4977 31.8018 15.031L25.2717 29.2208C25.0529 29.6968 25.0653 30.2563 25.3059 30.7193C25.5464 31.1838 25.9856 31.4979 26.4853 31.5601L34.8466 32.6038L33.0309 39.9228C32.8136 40.7947 33.3102 41.6896 34.1389 41.9202C34.2708 41.9546 34.4027 41.9709 34.5315 41.9709C35.219 41.9709 35.8506 41.4851 36.0322 40.7506L38.2978 31.6157C38.4111 31.1593 38.3304 30.6718 38.079 30.2808C37.8261 29.8899 37.4242 29.633 36.9803 29.5774L29.0147 28.5844L33.3863 19.0848L35.4906 22.5283Z" fill="url(#paint1_linear_43_256)"/>
<path d="M17.0268 50.5561C17.2875 50.7328 17.5793 50.8178 17.8679 50.8178C18.3769 50.8178 18.8751 50.5561 19.1715 50.0735L25.3012 40.0929C25.5355 39.7118 25.6085 39.2439 25.503 38.8038L22.9517 28.1165L28.1271 12.6344C28.3397 11.998 28.1597 11.2881 27.6724 10.848C27.1867 10.4079 26.4899 10.3311 25.9282 10.6501L16.9989 15.7082C16.749 15.8489 16.5426 16.06 16.3983 16.3152L12.1339 23.9008C11.6978 24.6779 11.9399 25.6823 12.6786 26.142C13.4141 26.6017 14.367 26.3465 14.8046 25.5678L18.8487 18.3748L23.8673 15.5332L19.8682 27.4965C19.7674 27.7992 19.7534 28.128 19.8279 28.4388L22.3279 38.9118L16.5659 48.2904C16.1019 49.0511 16.3068 50.0637 17.0268 50.5561Z" fill="url(#paint2_linear_43_256)"/>
<path d="M17.2565 31.8888C17.1649 31.4651 16.9197 31.0987 16.5706 30.8664L7.21299 24.6483C6.48673 24.1641 5.52925 24.3948 5.07301 25.1587L0.240585 33.2368C-0.218759 34.0024 4.9717e-05 35.0117 0.723206 35.4943L10.0792 41.7156C10.3291 41.8841 10.6162 41.9676 10.9079 41.9676C11.0228 41.9676 11.1376 41.9545 11.2509 41.9299C11.6528 41.8334 12.002 41.5717 12.2208 41.2069L17.0547 33.1255C17.2736 32.7542 17.3465 32.3109 17.2565 31.8888Z" fill="url(#paint3_linear_43_256)"/>
<path d="M62.8914 29.3598C62.8821 29.3353 62.8821 29.3091 62.8712 29.2862C62.8697 29.2813 62.8697 29.2764 62.8681 29.2715C62.7967 29.1013 62.6928 28.9541 62.5748 28.8216C62.5422 28.784 62.5019 28.7529 62.4646 28.7185C62.3638 28.6236 62.2536 28.5484 62.1356 28.483C62.0875 28.4568 62.0394 28.4339 61.9882 28.4126C61.8191 28.3439 61.6391 28.2981 61.4497 28.2981H56.653C55.7964 28.2981 55.1012 29.0293 55.1012 29.934C55.1012 30.8386 55.7964 31.5699 56.653 31.5699H57.9519L44.2352 47.5477H31.3317C30.8894 47.5477 30.4673 47.7473 30.174 48.0941L22.1681 57.5545L14.1668 53.3371C13.56 53.0181 12.8276 53.1523 12.3558 53.6627L4.758 61.9501C4.16209 62.5979 4.17916 63.6334 4.79524 64.2633C5.0963 64.5708 5.48426 64.7213 5.87377 64.7213C6.28035 64.7213 6.68538 64.5528 6.98954 64.2224L13.7943 56.797L21.8391 61.0373C22.4691 61.3694 23.2264 61.214 23.6904 60.6627L32.0238 50.8146H44.9227C45.3618 50.8146 45.7808 50.6199 46.0726 50.278L59.8963 34.1742V35.4077C59.8963 36.3124 60.5916 37.0436 61.4482 37.0436C62.3048 37.0436 63 36.3124 63 35.4077V29.934C63 29.9062 62.9876 29.8849 62.9861 29.8587C62.9814 29.6886 62.9504 29.5217 62.8914 29.3598Z" fill="url(#paint4_linear_43_256)"/>
<defs>
<linearGradient id="paint0_linear_43_256" x1="33.1985" y1="1.72131" x2="33.1985" y2="10.9412" gradientUnits="userSpaceOnUse">
<stop stop-color="#2AF598"/>
<stop offset="1" stop-color="#009EFD"/>
</linearGradient>
<linearGradient id="paint1_linear_43_256" x1="36.7954" y1="14.1105" x2="36.7954" y2="41.9709" gradientUnits="userSpaceOnUse">
<stop stop-color="#2AF598"/>
<stop offset="1" stop-color="#009EFD"/>
</linearGradient>
<linearGradient id="paint2_linear_43_256" x1="20.0662" y1="10.4551" x2="20.0662" y2="50.8178" gradientUnits="userSpaceOnUse">
<stop stop-color="#2AF598"/>
<stop offset="1" stop-color="#009EFD"/>
</linearGradient>
<linearGradient id="paint3_linear_43_256" x1="8.64707" y1="24.3948" x2="8.64707" y2="41.9676" gradientUnits="userSpaceOnUse">
<stop stop-color="#2AF598"/>
<stop offset="1" stop-color="#009EFD"/>
</linearGradient>
<linearGradient id="paint4_linear_43_256" x1="33.661" y1="28.2981" x2="33.661" y2="64.7213" gradientUnits="userSpaceOnUse">
<stop stop-color="#2AF598"/>
<stop offset="1" stop-color="#009EFD"/>
</linearGradient>
</defs>
</svg>
