<svg width="63" height="64" viewBox="0 0 63 64" fill="none" xmlns="http://www.w3.org/2000/svg">
<g clip-path="url(#clip0_43_250)">
<path d="M34.5422 3.76699L41.6477 18.1647C42.1419 19.1661 43.0972 19.86 44.2024 20.0203L60.0917 22.3293C62.8751 22.734 63.9855 26.1534 61.9723 28.1154L50.4748 39.3224C49.6758 40.1017 49.3105 41.2253 49.4997 42.3253L52.2134 58.1502C52.6892 60.9217 49.7797 63.0348 47.2907 61.7273L33.0795 54.2564C32.0913 53.7373 30.9099 53.7373 29.9216 54.2564L15.7105 61.7273C13.2215 63.0361 10.312 60.9217 10.7877 58.1502L13.5014 42.3253C13.6907 41.2253 13.3253 40.1017 12.5263 39.3224L1.02891 28.1154C-0.984361 26.1521 0.126089 22.7327 2.90944 22.3293L18.7987 20.0203C19.9039 19.86 20.8593 19.1661 21.3534 18.1647L28.459 3.76699C29.7022 1.24515 33.2977 1.24515 34.5422 3.76699Z" fill="url(#paint0_linear_43_250)"/>
</g>
<defs>
<linearGradient id="paint0_linear_43_250" x1="31.5006" y1="1.87561" x2="31.5006" y2="62.1246" gradientUnits="userSpaceOnUse">
<stop stop-color="#2AF598"/>
<stop offset="1" stop-color="#009EFD"/>
</linearGradient>
<clipPath id="clip0_43_250">
<rect width="63" height="63" fill="white" transform="translate(0 0.5)"/>
</clipPath>
</defs>
</svg>
