<svg width="63" height="63" viewBox="0 0 63 63" fill="none" xmlns="http://www.w3.org/2000/svg">
<path d="M30.2695 38.7732H35.1914V52.7871H30.2695V46.3459C29.2871 46.7689 28.2056 47.0039 27.0703 47.0039V42.082C28.8343 42.082 30.2695 40.6468 30.2695 38.8828V38.7732ZM34.3301 24.4863V28.7233C42.667 29.9215 49.0957 37.1102 49.0957 45.7734C49.0957 55.2721 41.3678 63 31.8691 63C22.3705 63 14.6426 55.2721 14.6426 45.7734C14.6426 37.1102 21.0713 29.9215 29.4082 28.7233V24.4863H22.9723L8.73633 3.33524V0H27.786L31.562 5.77263L35.1837 0H54.2637V3.30929L40.5925 24.4863H34.3301ZM31.8691 33.4688C25.0843 33.4688 19.5645 38.9886 19.5645 45.7734C19.5645 52.5583 25.0843 58.0781 31.8691 58.0781C38.654 58.0781 44.1738 52.5583 44.1738 45.7734C44.1738 38.9886 38.654 33.4688 31.8691 33.4688ZM34.5276 10.3066L39.2385 17.5092L47.3644 4.92188H37.9061L34.5276 10.3066ZM25.5923 19.5645H34.7016L25.1242 4.92188H15.7375L25.5923 19.5645Z" fill="url(#paint0_linear_43_248)"/>
<defs>
<linearGradient id="paint0_linear_43_248" x1="31.5" y1="0" x2="31.5" y2="63" gradientUnits="userSpaceOnUse">
<stop stop-color="#2AF598"/>
<stop offset="1" stop-color="#009EFD"/>
</linearGradient>
</defs>
</svg>
