<svg width="18" height="18" viewBox="0 0 18 18" fill="none" xmlns="http://www.w3.org/2000/svg">
<path d="M2.53125 3.23438H5.48438V2.10938C5.48438 2.03203 5.54766 1.96875 5.625 1.96875H6.60938C6.68672 1.96875 6.75 2.03203 6.75 2.10938V3.23438H11.25V2.10938C11.25 2.03203 11.3133 1.96875 11.3906 1.96875H12.375C12.4523 1.96875 12.5156 2.03203 12.5156 2.10938V3.23438H15.4688C15.7799 3.23438 16.0312 3.48574 16.0312 3.79688V15.4688C16.0312 15.7799 15.7799 16.0312 15.4688 16.0312H2.53125C2.22012 16.0312 1.96875 15.7799 1.96875 15.4688V3.79688C1.96875 3.48574 2.22012 3.23438 2.53125 3.23438ZM3.23438 14.7656H14.7656V8.08594H3.23438V14.7656ZM14.7656 6.89062V4.5H12.5156V5.34375C12.5156 5.42109 12.4523 5.48438 12.375 5.48438H11.3906C11.3133 5.48438 11.25 5.42109 11.25 5.34375V4.5H6.75V5.34375C6.75 5.42109 6.68672 5.48438 6.60938 5.48438H5.625C5.54766 5.48438 5.48438 5.42109 5.48438 5.34375V4.5H3.23438V6.89062H14.7656Z" fill="black"/>
</svg>
